<svg width="24" height="24" viewBox="0 0 24 24" fill="none" xmlns="http://www.w3.org/2000/svg">
<path d="M21.5312 19.8438C22.1172 20.4688 22.1172 21.4453 21.5312 22.0703C20.9062 22.6562 19.9297 22.6562 19.3047 22.0703L14.6562 17.3828C13.0547 18.4375 11.1016 18.9844 8.99219 18.7109C5.39844 18.2031 2.50781 15.2734 2.03906 11.7188C1.375 6.40625 5.86719 1.91406 11.1797 2.57812C14.7344 3.04688 17.6641 5.9375 18.1719 9.53125C18.4453 11.6406 17.8984 13.5938 16.8438 15.1562L21.5312 19.8438ZM5.08594 10.625C5.08594 13.3984 7.3125 15.625 10.0859 15.625C12.8203 15.625 15.0859 13.3984 15.0859 10.625C15.0859 7.89062 12.8203 5.625 10.0859 5.625C7.3125 5.625 5.08594 7.89062 5.08594 10.625Z" fill="#1C325F"/>
</svg>
